<?xml version="1.0" encoding="iso-8859-1"?>
<!-- Generator: Adobe Illustrator 19.0.0, SVG Export Plug-In . SVG Version: 6.00 Build 0)  -->
<svg version="1.1" id="Capa_1" xmlns="http://www.w3.org/2000/svg" xmlns:xlink="http://www.w3.org/1999/xlink" x="0px" y="0px"
	 viewBox="0 0 472 472" style="enable-background:new 0 0 472 472;" xml:space="preserve">
<path style="fill:#FFB398;" d="M236,0c-80,0-120,56-120,56v40l-56,56l32,32h24v32h24v32h-24v48h56v72H52c-26.51,0-48,21.49-48,48v56
	h235.717L238.329,0.041C237.553,0.031,236.774,0,236,0z"/>
<path style="fill:#FE946F;" d="M468,416c0-26.51-21.49-48-48-48H300v-72c0,0,88-80,88-160C388,41.032,309.715,0.894,238.329,0.041
	L239.717,472H468V416z"/>
<polygon style="fill:#F40E34;" points="252,472 252,144 116,144 92,168 92,184 116,184 124,176 220,176 220,256 180,216 140,216 
	140,248 164,248 220,304 220,472 "/>
<g>
</g>
<g>
</g>
<g>
</g>
<g>
</g>
<g>
</g>
<g>
</g>
<g>
</g>
<g>
</g>
<g>
</g>
<g>
</g>
<g>
</g>
<g>
</g>
<g>
</g>
<g>
</g>
<g>
</g>
</svg>
